<?xml version="1.0" standalone="no"?>
<!DOCTYPE svg PUBLIC "-//W3C//DTD SVG 20010904//EN"
 "http://www.w3.org/TR/2001/REC-SVG-20010904/DTD/svg10.dtd">
<svg version="1.0" xmlns="http://www.w3.org/2000/svg"
 width="800.000000pt" height="800.000000pt" viewBox="0 0 800.000000 800.000000"
 preserveAspectRatio="xMidYMid meet">
<metadata>
Created by potrace 1.16, written by Peter Selinger 2001-2019
</metadata>
<g transform="translate(0.000000,800.000000) scale(0.100000,-0.100000)"
fill="#000000" stroke="none">
<path d="M1734 6126 c-10 -26 3 -33 69 -39 77 -7 166 -39 195 -70 11 -12 29
-42 39 -67 17 -43 18 -97 18 -990 l0 -945 -25 -50 c-32 -64 -94 -98 -215 -116
-71 -10 -85 -15 -85 -31 0 -17 22 -18 525 -18 501 0 525 1 525 18 0 15 -14 20
-82 30 -114 16 -151 28 -186 60 -57 54 -62 93 -62 512 l0 376 60 59 c53 52 62
58 74 45 8 -8 95 -110 193 -226 151 -179 377 -441 513 -595 l35 -40 110 66
c61 36 114 70 118 74 4 4 -7 52 -24 107 -39 121 -56 144 -476 635 l-183 214
53 53 c28 30 129 125 222 213 94 87 233 217 310 289 167 157 322 276 419 324
95 46 197 76 257 76 46 0 49 2 49 25 l0 25 -435 0 -435 0 0 -25 c0 -23 3 -25
50 -25 89 0 160 -46 160 -102 0 -52 -38 -106 -173 -245 -117 -120 -700 -678
-843 -807 l-55 -48 3 518 3 519 25 50 c21 41 35 55 80 78 30 15 82 30 115 35
51 6 60 10 60 27 0 20 -8 20 -498 23 -429 2 -498 0 -503 -12z"/>
<path d="M4858 5550 c-76 -14 -148 -39 -228 -82 -83 -44 -170 -105 -170 -119
0 -18 31 -8 79 26 111 80 285 135 426 135 268 -1 488 -159 571 -410 24 -75 25
-252 0 -335 -73 -255 -269 -491 -506 -610 -67 -33 -62 -29 -54 -48 5 -14 10
-14 57 0 117 35 252 117 356 217 158 153 242 297 276 476 29 147 14 271 -47
400 -73 152 -229 280 -408 335 -64 19 -279 29 -352 15z"/>
<path d="M3826 4959 c-217 -75 -349 -279 -317 -490 14 -86 48 -159 112 -238
l49 -61 -42 -17 c-201 -80 -422 -235 -531 -373 -120 -151 -163 -270 -155 -430
9 -190 102 -309 232 -298 90 7 274 135 426 295 115 121 251 270 320 351 34 40
68 71 74 69 6 -2 28 -28 48 -58 121 -178 121 -421 0 -664 -91 -184 -317 -439
-507 -573 -113 -80 -272 -158 -350 -173 -173 -32 -295 45 -295 185 0 121 103
252 233 297 47 16 52 44 5 35 -96 -19 -209 -115 -258 -218 -73 -155 -15 -299
139 -342 72 -20 112 -20 209 0 218 44 440 176 670 399 271 263 402 512 402
770 0 145 -49 284 -144 409 l-45 59 20 29 c26 36 140 134 216 186 32 21 123
76 203 122 188 107 253 152 318 217 73 76 96 123 96 204 0 56 -4 73 -28 109
-17 26 -43 49 -69 61 -98 44 -183 9 -282 -114 -36 -45 -64 -86 -62 -92 8 -23
34 -12 59 25 54 78 122 87 177 25 79 -90 35 -216 -109 -313 -36 -24 -110 -68
-165 -99 -55 -31 -136 -81 -180 -112 -106 -73 -296 -259 -407 -398 l-90 -113
-32 22 c-17 12 -82 72 -144 134 -71 70 -119 111 -128 107 -8 -3 -14 -7 -14
-10 0 -21 197 -215 270 -266 l23 -16 -43 -58 c-95 -127 -296 -308 -452 -408
l-28 -17 -20 48 c-33 77 -43 141 -37 244 8 130 48 238 137 371 87 128 187 224
318 306 l73 45 62 -28 c81 -36 162 -38 231 -5 76 37 85 95 22 137 -40 26 -159
16 -247 -20 -11 -5 -22 7 -41 46 -35 71 -46 109 -56 198 -25 204 50 366 204
441 59 29 70 31 139 27 123 -8 195 -72 195 -173 0 -59 -26 -108 -70 -133 -35
-20 -38 -32 -10 -32 24 0 86 53 106 91 20 40 18 122 -5 167 -25 50 -55 76
-121 106 -47 22 -69 26 -150 26 -69 -1 -111 -6 -154 -21z m211 -776 c13 -39
-123 -62 -182 -30 l-30 16 35 15 c42 19 171 18 177 -1z"/>
<path d="M4320 4040 c0 -13 9 -21 28 -26 127 -27 163 -61 182 -172 16 -99 9
-1673 -8 -1724 -26 -77 -93 -117 -225 -133 -38 -5 -48 -10 -45 -23 3 -16 41
-17 456 -20 442 -2 452 -2 452 17 0 16 -9 21 -47 26 -61 8 -133 31 -161 51
-12 8 -32 34 -45 57 -22 41 -22 50 -27 494 -5 425 -4 451 12 435 53 -54 764
-914 785 -951 l27 -44 -22 -17 c-11 -10 -39 -20 -61 -24 -27 -4 -41 -11 -41
-21 0 -13 57 -15 440 -15 378 0 440 2 440 15 0 9 -14 17 -37 21 -159 27 -232
64 -352 179 -72 69 -651 734 -861 988 l-72 88 89 96 c157 173 446 457 523 514
122 92 241 146 358 164 32 5 42 11 42 26 0 18 -13 19 -385 19 -371 0 -385 -1
-385 -19 0 -15 12 -21 61 -30 72 -12 106 -32 120 -69 24 -63 -32 -138 -348
-464 -98 -101 -211 -220 -252 -266 -41 -45 -77 -82 -80 -82 -3 0 -4 170 -1
377 5 341 7 382 24 421 19 44 54 70 111 82 21 4 31 12 33 28 l3 22 -365 0
c-358 0 -366 0 -366 -20z"/>
</g>
</svg>
